<?xml version="1.0" encoding="iso-8859-1"?>
<!-- Uploaded to: SVG Repo, www.svgrepo.com, Generator: SVG Repo Mixer Tools -->
<svg fill="#000000" height="800px" width="800px" version="1.1" id="Layer_1" xmlns="http://www.w3.org/2000/svg" xmlns:xlink="http://www.w3.org/1999/xlink" 
	 viewBox="0 0 512 512" xml:space="preserve">
<g>
	<g>
		<path d="M495.304,322.783h-16.696v-83.478c0-27.619-22.468-50.087-50.087-50.087h-54.75l-21.978-65.924
			c-6.826-20.483-25.914-34.249-47.511-34.249c-107.634,0-82.818,0-187.413,0c-21.737,0-40.095,14-47.01,33.391H50.087
			C22.468,122.435,0,144.903,0,172.522v66.783c0,27.619,22.468,50.087,50.087,50.087h16.696v33.391H50.087
			c-9.217,0-16.696,7.473-16.696,16.696c0,9.223,7.479,16.696,16.696,16.696c19.164,0,33.406,0,50.087,0
			c0,36.826,29.956,66.783,66.783,66.783c36.826,0,66.783-29.956,66.783-66.783h77.913c0,36.826,29.956,66.783,66.783,66.783
			c36.826,0,66.783-29.956,66.783-66.783c16.365,0,31.101,0,50.087,0c9.217,0,16.696-7.473,16.696-16.696
			C512,330.256,504.521,322.783,495.304,322.783z M166.957,389.565c-18.413,0-33.391-14.978-33.391-33.391
			c0-18.413,14.978-33.391,33.391-33.391s33.391,14.978,33.391,33.391C200.348,374.587,185.37,389.565,166.957,389.565z
			 M200.348,189.217H100.174V139.13c0-9.206,7.49-16.696,16.696-16.696h83.478V189.217z M283.826,289.391h-33.391
			c-9.217,0-16.696-7.473-16.696-16.696c0-9.223,7.479-16.696,16.696-16.696h33.391c9.217,0,16.696,7.473,16.696,16.696
			C300.522,281.918,293.043,289.391,283.826,289.391z M233.739,189.217v-66.783c26.403,0,44.09,0,70.544,0
			c7.196,0,13.555,4.587,15.838,11.419l18.455,55.364H233.739z M378.435,389.565c-18.442,0-33.391-14.949-33.391-33.391
			s14.949-33.391,33.391-33.391s33.391,14.949,33.391,33.391S396.877,389.565,378.435,389.565z"/>
	</g>
</g>
</svg>